<?xml version="1.0" standalone="no"?>
<!DOCTYPE svg PUBLIC "-//W3C//DTD SVG 20010904//EN"
 "http://www.w3.org/TR/2001/REC-SVG-20010904/DTD/svg10.dtd">
<svg version="1.0" xmlns="http://www.w3.org/2000/svg"
 width="1200.000000pt" height="1200.000000pt" viewBox="0 0 1200.000000 1200.000000"
 preserveAspectRatio="xMidYMid meet">

<g transform="translate(0.000000,1200.000000) scale(0.100000,-0.100000)"
fill="#000000" stroke="none">
<path d="M0 6000 l0 -6000 6000 0 6000 0 0 6000 0 6000 -6000 0 -6000 0 0
-6000z m6048 3761 c20 -11 150 -133 289 -273 221 -222 253 -258 263 -298 23
-87 17 -97 -278 -393 -288 -289 -298 -296 -386 -282 -37 6 -64 30 -304 269
-145 143 -270 273 -278 288 -17 32 -18 105 -3 145 13 35 469 496 528 534 54
35 114 38 169 10z m-1561 -1083 c380 -380 699 -706 709 -723 11 -21 15 -41 10
-59 -7 -29 -58 -66 -91 -66 -13 0 -267 247 -732 712 -668 668 -713 715 -713
747 0 50 32 81 84 81 40 0 44 -3 733 -692z m3820 670 c16 -15 23 -33 23 -57 0
-34 -36 -72 -709 -745 -683 -683 -711 -710 -747 -710 -28 0 -42 7 -60 28 -28
31 -30 56 -10 94 8 15 327 339 708 720 682 680 694 692 733 692 26 0 46 -7 62
-22z m-2619 -1610 l-3 -63 -60 0 -60 0 -3 63 -3 62 66 0 66 0 -3 -62z m250 0
l-3 -63 -60 0 -60 0 -3 63 -3 62 66 0 66 0 -3 -62z m250 0 l-3 -63 -60 0 -60
0 -3 63 -3 62 66 0 66 0 -3 -62z m250 0 l-3 -63 -60 0 -60 0 -3 63 -3 62 66 0
66 0 -3 -62z m-2404 -38 c56 -27 530 -502 550 -552 19 -43 20 -85 6 -125 -12
-32 -511 -537 -552 -559 -15 -8 -48 -14 -73 -14 -25 0 -58 6 -73 14 -41 22
-540 527 -552 559 -15 43 -12 94 9 135 23 44 502 523 546 546 41 21 91 20 139
-4z m4064 5 c46 -19 524 -493 553 -547 21 -41 24 -92 9 -135 -12 -32 -511
-537 -552 -559 -15 -8 -48 -14 -73 -14 -25 0 -58 6 -73 14 -41 22 -540 527
-552 559 -14 40 -13 82 6 125 21 51 494 527 549 553 49 23 84 24 133 4z
m-1538 -655 l0 -560 -560 0 -560 0 0 560 0 560 560 0 560 0 0 -560z m-1185
375 l0 -60 -62 -3 -63 -3 0 66 0 66 63 -3 62 -3 0 -60z m1375 0 l0 -66 -62 3
-63 3 -1 55 c0 30 1 58 3 63 2 4 31 7 64 7 l59 0 0 -65z m-1375 -250 l0 -60
-62 -3 -63 -3 0 66 0 66 63 -3 62 -3 0 -60z m1375 0 l0 -66 -62 3 -63 3 -1 55
c0 30 1 58 3 63 2 4 31 7 64 7 l59 0 0 -65z m-1375 -250 l0 -60 -62 -3 -63 -3
0 66 0 66 63 -3 62 -3 0 -60z m1375 0 l0 -66 -62 3 -63 3 -1 55 c0 30 1 58 3
63 2 4 31 7 64 7 l59 0 0 -65z m-1375 -250 l0 -60 -62 -3 -63 -3 0 66 0 66 63
-3 62 -3 0 -60z m1375 0 l0 -66 -62 3 -63 3 -1 55 c0 30 1 58 3 63 2 4 31 7
64 7 l59 0 0 -65z m-1062 -313 l3 -62 -66 0 -65 0 0 58 c0 32 2 61 5 63 2 3
30 5 62 4 l58 0 3 -63z m250 0 l3 -62 -66 0 -65 0 0 58 c0 32 2 61 5 63 2 3
30 5 62 4 l58 0 3 -63z m250 0 l3 -62 -66 0 -65 0 0 58 c0 32 2 61 5 63 2 3
30 5 62 4 l58 0 3 -63z m250 0 l3 -62 -66 0 -65 0 0 58 c0 32 2 61 5 63 2 3
30 5 62 4 l58 0 3 -63z m-1254 -143 c53 -63 88 -22 -687 -796 -654 -655 -715
-713 -745 -713 -47 0 -82 38 -82 87 0 37 19 57 708 745 677 678 709 708 744
708 28 0 42 -7 62 -31z m2438 -677 c688 -687 708 -708 708 -745 0 -49 -35 -87
-82 -87 -30 0 -91 59 -741 708 -389 389 -710 717 -713 730 -7 27 12 79 35 92
9 5 32 10 51 10 33 0 73 -39 742 -708z m-1574 149 c20 -11 150 -133 289 -273
221 -222 253 -258 263 -298 23 -87 17 -97 -278 -393 -288 -289 -298 -296 -386
-282 -37 7 -65 31 -304 269 -145 143 -270 273 -278 288 -17 32 -18 105 -3 145
13 35 469 496 528 534 54 35 114 38 169 10z m-3063 -1958 c100 -52 104 -71
105 -444 0 -242 -3 -316 -15 -355 -30 -103 -85 -124 -327 -124 l-168 0 0 476
0 476 183 -4 c162 -3 186 -6 222 -25z m2147 -136 c39 -87 75 -154 79 -150 4 4
39 76 78 158 l69 150 61 3 c34 2 61 0 61 -4 0 -4 -48 -109 -106 -233 l-105
-225 114 -240 114 -241 -55 -3 c-30 -2 -60 -1 -66 1 -7 3 -48 82 -91 177 l-80
173 -84 -177 -84 -176 -63 0 -63 0 33 73 c18 39 58 122 88 182 30 61 67 138
83 172 l27 61 -73 159 c-39 87 -87 191 -106 231 l-33 73 65 -3 66 -3 71 -158z
m-1385 -122 c61 -18 108 -67 120 -122 10 -49 10 -357 0 -406 -21 -97 -113
-143 -272 -135 -111 6 -160 29 -196 92 -23 39 -24 49 -24 246 0 197 1 207 23
246 25 43 65 72 116 85 54 13 181 9 233 -6z m463 1 c0 -13 4 -13 28 0 40 21
102 17 154 -9 l46 -23 28 20 c38 28 128 33 173 9 19 -10 44 -31 55 -46 20 -27
21 -43 24 -323 l3 -294 -55 0 -56 0 0 279 c0 310 0 311 -65 311 -24 0 -39 -7
-54 -26 -20 -26 -21 -39 -21 -295 l0 -269 -55 0 -55 0 0 273 c0 230 -2 276
-16 295 -20 29 -76 30 -104 2 -19 -19 -20 -33 -20 -295 l0 -275 -55 0 -55 0 0
340 0 340 50 0 c37 0 50 -4 50 -14z m1650 0 c0 -13 4 -13 35 0 41 17 149 18
211 3 57 -15 108 -62 123 -114 14 -52 14 -378 0 -430 -15 -52 -66 -99 -123
-114 -25 -6 -90 -11 -145 -11 l-101 0 0 -115 0 -115 -55 0 -55 0 0 455 0 455
55 0 c41 0 55 -4 55 -14z m910 -1 c0 -8 2 -15 4 -15 2 0 20 7 39 15 23 9 68
15 122 15 l85 0 0 -55 0 -55 -85 0 c-94 0 -128 -11 -144 -47 -7 -15 -11 -99
-11 -223 l0 -200 74 0 73 0 2 -50 1 -50 -183 0 -183 0 1 48 0 47 48 3 47 3 0
239 0 239 -47 3 -48 3 0 48 -1 47 103 0 c85 0 103 -3 103 -15z m945 -4 c83
-38 104 -88 105 -253 l0 -118 -180 0 -180 0 0 -64 c0 -54 4 -70 24 -93 24 -28
25 -28 160 -31 l136 -4 0 -49 0 -49 -128 0 c-191 0 -249 23 -287 112 -12 29
-15 78 -15 225 0 105 5 205 11 227 13 49 57 91 106 104 67 18 203 14 248 -7z
m835 -31 l0 -50 -110 0 c-106 0 -112 -1 -137 -26 -22 -22 -25 -32 -20 -72 6
-58 25 -72 95 -72 155 0 211 -69 200 -245 -4 -73 -24 -108 -79 -140 -29 -17
-56 -21 -176 -23 l-143 -4 0 51 0 51 119 0 c153 0 165 7 165 104 0 38 -5 71
-12 78 -7 7 -50 15 -95 19 -141 11 -178 45 -185 171 -7 119 30 178 123 201 11
3 73 5 138 6 l117 1 0 -50z m790 0 l0 -50 -110 0 c-106 0 -112 -1 -137 -26
-22 -22 -25 -32 -20 -72 6 -58 25 -72 95 -72 155 0 211 -69 200 -245 -4 -73
-24 -108 -79 -140 -29 -17 -56 -21 -176 -23 l-143 -4 0 51 0 51 119 0 c153 0
165 7 165 104 0 38 -5 71 -12 78 -7 7 -50 15 -95 19 -141 11 -178 45 -185 171
-7 119 30 178 123 201 11 3 73 5 138 6 l117 1 0 -50z"/>
<path d="M5732 9377 l-232 -232 235 -235 235 -235 235 235 235 235 -232 232
c-128 128 -235 233 -238 233 -3 0 -110 -105 -238 -233z"/>
<path d="M3730 7315 l-235 -235 235 -235 235 -235 235 235 235 235 -235 235
-235 235 -235 -235z"/>
<path d="M7800 7315 l-235 -235 235 -235 235 -235 235 235 235 235 -235 235
-235 235 -235 -235z"/>
<path d="M5625 7481 c-51 -21 -73 -76 -50 -125 28 -59 99 -72 145 -26 43 43
34 112 -19 143 -32 19 -46 20 -76 8z"/>
<path d="M6301 6786 c-68 -38 -65 -128 6 -161 78 -38 161 50 117 124 -28 48
-77 63 -123 37z"/>
<path d="M5732 5307 l-232 -232 235 -235 235 -235 235 235 235 235 -232 232
c-128 128 -235 233 -238 233 -3 0 -110 -105 -238 -233z"/>
<path d="M2700 3286 l0 -376 94 0 c108 0 149 11 165 46 7 17 11 124 11 334 l0
309 -24 28 c-23 27 -28 28 -135 31 l-111 4 0 -376z"/>
<path d="M3534 3376 c-17 -7 -34 -21 -38 -31 -3 -9 -6 -100 -6 -201 0 -169 2
-186 19 -203 25 -25 76 -35 148 -29 46 4 61 10 80 32 22 26 23 33 23 206 0
174 -1 180 -24 207 -21 25 -31 28 -97 30 -48 2 -85 -2 -105 -11z"/>
<path d="M5890 3362 l-30 -30 0 -212 0 -212 110 4 c160 5 155 -3 155 238 0
184 -1 190 -23 212 -19 19 -35 23 -102 26 -77 4 -80 3 -110 -26z"/>
<path d="M7502 3380 c-29 -12 -42 -48 -42 -121 l0 -59 125 0 125 0 0 66 c0 59
-3 68 -29 95 -27 26 -36 29 -93 28 -35 0 -73 -4 -86 -9z"/>
</g>
</svg>
